<svg width="90" height="106" viewBox="0 0 90 106" fill="none" xmlns="http://www.w3.org/2000/svg">
<path fill-rule="evenodd" clip-rule="evenodd" d="M38.9346 6.92986L38.069 7.7955L38.9346 8.66114L44.1286 13.855L44.9942 14.7206L45.8599 13.855L51.0538 8.66114L51.9195 7.7955L51.0538 6.92986L45.8599 1.736L44.9942 0.870361L44.1286 1.736L38.9346 6.92986ZM44.9942 11.2581L41.5316 7.7955L44.9942 4.33293L48.4569 7.7955L44.9942 11.2581ZM46.2159 20.5374V20.4985L52.8595 13.855L53.7252 12.9894L51.9939 11.258L51.1282 12.1237L44.9927 18.2591L38.8573 12.1237L37.9917 11.258L36.2604 12.9894L37.126 13.855L43.7675 20.4964V20.5374L43.7675 41.3671L22.4862 20.0862L22.4568 20.0568V10.6641V9.43986H20.0083V10.6641V19.3408L11.3315 19.3407L10.1073 19.3407L10.1073 21.7891L11.3315 21.7891L20.7266 21.7892L20.7549 21.8175L42.5723 43.6344H19.6675H19.6268L12.9843 36.992L12.1186 36.1264L10.3873 37.8577L11.253 38.7233L17.3884 44.8587L11.253 50.9939L10.3873 51.8595L12.1186 53.5909L12.9843 52.7252L19.6268 46.0829H19.6675L37.2735 46.0829H38.4977H70.3276H70.3683L77.0108 52.7253L77.8765 53.5909L79.6077 51.8596L78.7421 50.994L72.6066 44.8586L78.7421 38.7234L79.6077 37.8577L77.8765 36.1264L77.0108 36.992L70.3682 43.6345H70.3276L52.7215 43.6344H51.4973H47.4188L69.2363 21.8173L69.2646 21.789H78.6584H79.8826V19.3406H78.6584H69.9815L69.9816 10.6639L69.9816 9.43974L67.5331 9.43973L67.5331 10.6639L67.5331 20.0579L67.505 20.086L46.2159 41.3747L46.2159 20.5374ZM7.71276 15.6145L7.71276 16.8387H8.93699H16.2823H17.5066L17.5066 15.6145V8.26925L17.5066 7.04505L16.2823 7.04505H8.93699H7.71276L7.71276 8.26925V15.6145ZM15.0581 14.3903H10.1612V9.49345L15.0581 9.49345V14.3903ZM72.4843 7.04502H73.7085H81.0539H82.2781V8.26922V15.6144V16.8386L81.0539 16.8386H73.7085H72.4843V15.6144V8.26922V7.04502ZM74.9328 9.49343V14.3902H79.8297V9.49343L74.9328 9.49343ZM6.05961 50.9181L6.92527 51.7837L7.79093 50.9181L12.9849 45.7242L13.8505 44.8586L12.9849 43.9929L7.79093 38.7991L6.92527 37.9334L6.05961 38.7991L0.865659 43.9929L0 44.8586L0.865659 45.7242L6.05961 50.9181ZM10.3879 44.8586L6.92527 48.3212L3.46263 44.8586L6.92527 41.396L10.3879 44.8586ZM83.0698 37.9336L83.9355 38.7992L89.1294 43.9931L89.9951 44.8587L89.1294 45.7244L83.9355 50.9182L83.0698 51.7839L82.2041 50.9182L77.0102 45.7244L76.1445 44.8587L77.0102 43.9931L82.2041 38.7992L83.0698 37.9336ZM83.0698 41.3962L79.6072 44.8587L83.0698 48.3213L86.5324 44.8587L83.0698 41.3962ZM44.8831 97.8427C36.2134 97.8427 28.8441 91.7739 27.1102 83.5377H70.6754V79.8531C70.6754 65.6564 59.0797 54.2775 44.8831 54.2775C30.6864 54.2775 18.874 65.6564 18.874 79.8531C18.874 94.0497 30.6864 105.537 44.8831 105.537C54.203 105.537 62.4392 100.552 66.9908 93.0743C66.9908 93.0743 60.2718 90.3651 56.3704 93.6162C53.2276 96.2171 49.3263 97.8427 44.8831 97.8427ZM44.8831 61.9718C53.6611 61.9718 60.922 68.149 62.4392 76.4936H27.1102C28.7357 68.149 36.105 61.9718 44.8831 61.9718Z" fill="white"/>
</svg>
